<?xml version="1.0" encoding="UTF-8"?>
<svg version="1.1" xmlns="http://www.w3.org/2000/svg" width="1088" height="1088">
<path d="M0 0 C0.81752847 -0.00384115 1.63505694 -0.00768229 2.477359 -0.01163983 C3.37005045 -0.01077335 4.26274191 -0.00990687 5.18248463 -0.00901413 C6.13510349 -0.01198525 7.08772235 -0.01495637 8.06920844 -0.01801753 C11.26955841 -0.02670702 14.46987098 -0.028213 17.67023182 -0.02970505 C19.96160938 -0.03433307 22.25298618 -0.03935771 24.54436207 -0.04475021 C30.77593543 -0.05787839 37.00749802 -0.06432008 43.23908305 -0.06876087 C47.13210206 -0.07169114 51.02511812 -0.07579588 54.91813564 -0.08026505 C65.70213425 -0.09237441 76.48612899 -0.10275609 87.27013397 -0.10614014 C87.96015046 -0.1063597 88.65016695 -0.10657927 89.36109303 -0.10680549 C90.05273933 -0.10702377 90.74438562 -0.10724204 91.4569909 -0.10746694 C92.85847485 -0.1079104 94.2599588 -0.10835696 95.66144276 -0.10880661 C96.70421434 -0.10913875 96.70421434 -0.10913875 97.76805202 -0.10947761 C109.02643666 -0.1134236 120.2847565 -0.13087183 131.54311612 -0.15416613 C143.10896849 -0.17790294 154.67477915 -0.19008529 166.24065715 -0.19150805 C172.73158556 -0.19255615 179.22242258 -0.19846491 185.71332836 -0.21632767 C191.82085096 -0.23280808 197.92821348 -0.23496387 204.03575039 -0.22618866 C206.27504499 -0.22541826 208.51434819 -0.22976141 210.7536211 -0.23964691 C213.81579238 -0.25237024 216.87739703 -0.24648717 219.9395647 -0.23606491 C221.26187148 -0.24814952 221.26187148 -0.24814952 222.61089152 -0.26047826 C230.8725706 -0.19492886 237.97529066 1.57990279 244.19098377 7.25642776 C244.99149158 7.96025589 245.7919994 8.66408401 246.61676502 9.38924026 C251.94044995 15.84386344 254.06540817 24.38626401 256.50348377 32.26424026 C256.84266834 33.34442429 257.18185291 34.42460831 257.5313158 35.53752518 C258.26591124 37.87904813 258.99808631 40.22133151 259.72809315 42.56428909 C260.90374277 46.33749562 262.0853403 50.10880997 263.26910877 53.87947464 C263.67976397 55.18775987 264.09040841 56.49604847 264.50104237 57.80434036 C264.70686939 58.460093 264.91269642 59.11584564 265.12476063 59.79146957 C265.75886437 61.81264063 266.39225491 63.83403395 267.02545643 65.85548782 C271.18892589 79.14406978 275.40349851 92.41625757 279.62408924 105.68678665 C281.7316099 112.31356684 283.83652504 118.94117466 285.94098377 125.56892776 C286.14851276 126.22248623 286.35604176 126.87604469 286.5698595 127.54940796 C291.39231057 142.73803306 296.18846251 157.93494126 300.98297596 173.13240433 C306.92711258 191.97211713 312.89675305 210.80362865 318.87848377 229.63142776 C325.60126727 250.79172788 332.30301906 271.95853563 338.98297596 293.13240433 C344.92711258 311.97211713 350.89675305 330.80362865 356.87848377 349.63142776 C363.60126727 370.79172788 370.30301906 391.95853563 376.98297596 413.13240433 C382.92711258 431.97211713 388.89675305 450.80362865 394.87848377 469.63142776 C401.59859897 490.78332926 408.29824364 511.94156331 414.97491932 533.10722733 C420.43421712 550.41236905 425.91608435 567.71022205 431.41159916 585.00388622 C444.1982655 625.24222089 444.1982655 625.24222089 448.49054432 638.91337967 C448.90966824 640.24744246 449.3297244 641.58121279 449.75079823 642.91466141 C450.30137055 644.65921207 450.84789873 646.40503763 451.39410877 648.15095901 C451.83158436 649.54471756 451.83158436 649.54471756 452.27789783 650.96663284 C452.87848377 653.13142776 452.87848377 653.13142776 452.87848377 655.13142776 C448.40936957 654.48245277 444.60859098 652.7876045 440.56207752 650.87752151 C439.48872906 650.37940208 439.48872906 650.37940208 438.39369678 649.87121964 C436.84507165 649.1521725 435.29751577 648.43081894 433.7509203 647.70741653 C429.56334969 645.74945908 425.36737395 643.80969098 421.17145252 641.86970901 C420.30932148 641.47076431 419.44719044 641.07181961 418.55893421 640.66078568 C410.12307965 636.76570257 401.63076571 633.00364852 393.12848377 629.25642776 C379.26398884 623.13904675 365.50322196 616.81614928 351.76782703 610.41472244 C339.08432991 604.50657741 326.34684845 598.74143772 313.54498768 593.09480667 C300.94140156 587.53251684 288.42528499 581.79534326 275.92981434 575.99470901 C264.64588175 570.75909518 253.32339919 565.6232555 241.94608021 560.59373856 C236.20306067 558.05425053 230.46520064 555.50310384 224.72717762 552.95235062 C222.99501088 552.18317228 221.26173764 551.41648712 219.52838612 550.64998245 C216.78345192 549.43030824 214.04814403 548.19188818 211.31598377 546.94392776 C210.57251698 546.61771439 209.82905018 546.29150101 209.06305408 545.95540237 C204.73638462 543.94568658 202.9753498 542.36880901 200.87848377 538.13142776 C199.66986204 534.69331673 198.67304116 531.20213753 197.67535877 527.69783401 C197.36552052 526.6320311 197.05568226 525.56622818 196.73645496 524.4681282 C196.05625679 522.12545759 195.37930355 519.78184301 194.70514393 517.43742752 C193.60135126 513.59958923 192.48945243 509.76415239 191.37457752 505.92952347 C190.98211281 504.57935203 190.58965688 503.22917805 190.19720936 501.87900162 C189.89988155 500.85614657 189.89988155 500.85614657 189.59654713 499.81262779 C188.97909499 497.68719805 188.36257802 495.56149893 187.74628162 493.4357338 C183.31838598 478.16801312 178.81695019 462.92213608 174.31329823 447.6766243 C171.8693015 439.40308862 169.42857367 431.12858832 166.98785877 422.85408401 C166.6159441 421.5933384 166.6159441 421.5933384 166.236516 420.30712318 C161.51961283 404.31656816 156.81678443 388.32189138 152.11657238 372.32642365 C151.85253927 371.42789043 151.58850616 370.52935722 151.31647205 369.60359573 C150.92074718 368.25689867 150.92074718 368.25689867 150.51702785 366.88299561 C147.13443191 355.37254527 143.74747645 343.86337761 140.35928822 332.3545723 C139.85559412 330.64363523 139.35190148 328.93269773 138.84821033 327.2217598 C138.60105841 326.38225407 138.35390648 325.54274834 138.0992651 324.67780304 C136.3907297 318.87364863 134.68446639 313.0688293 132.97906971 307.26375198 C130.95026582 300.3582115 128.91734808 293.45389806 126.87907124 286.55114746 C125.8475784 283.05760021 124.81789558 279.56354714 123.79315662 276.06801224 C122.68452863 272.28654158 121.56712227 268.50769871 120.44879627 264.72908401 C120.1281319 263.63027405 119.80746754 262.53146408 119.47708607 261.39935684 C117.32446133 253.99475015 117.32446133 253.99475015 113.87848377 247.13142776 C112.88848377 246.80142776 111.89848377 246.47142776 110.87848377 246.13142776 C107.14854807 249.3177311 105.96136151 252.06549391 104.60114002 256.74080276 C104.39854572 257.42376419 104.19595142 258.10672562 103.9872179 258.81038284 C103.29266661 261.16392634 102.61717105 263.52254738 101.94098377 265.88142776 C101.42591726 267.64119846 100.9096731 269.40062479 100.39239979 271.15974808 C99.20964624 275.19232844 98.03584026 279.22739079 96.86774158 283.26424026 C94.9119659 290.02247456 92.94062107 296.77612307 90.96683598 303.52911377 C88.18327093 313.05325183 85.40320153 322.57840279 82.62994862 332.10554886 C75.59314314 356.27800729 68.51564307 380.43836201 61.42133045 404.59400177 C58.85977887 413.31599671 56.29875778 422.03814745 53.73785877 430.76033401 C53.31502865 432.20041856 53.31502865 432.20041856 52.8836565 433.66959572 C46.6153007 455.01946503 40.3606662 476.37334547 34.11069584 497.72860336 C33.32107868 500.42651978 32.53135852 503.12440602 31.74161243 505.8222847 C30.51277598 510.0202503 29.28420059 514.21829222 28.05585957 518.41640282 C27.60831993 519.94588581 27.16071554 521.47534985 26.71304035 523.00479317 C26.10187123 525.09292025 25.49099092 527.1811316 24.88019276 529.26936722 C24.53971409 530.43305328 24.19923542 531.59673935 23.84843922 532.79568863 C23.16289253 535.15332776 22.54212027 537.53025884 21.96808338 539.91749954 C20.87848377 543.13142776 20.87848377 543.13142776 19.31697559 544.58685684 C18.69862339 544.86058624 18.08027119 545.13431564 17.44318104 545.41633987 C16.37950054 545.90962532 16.37950054 545.90962532 15.29433155 546.41287613 C14.13135799 546.90584435 14.13135799 546.90584435 12.94489002 547.40877151 C12.13319859 547.77693481 11.32150715 548.14509811 10.485219 548.52441788 C7.81374737 549.72965826 5.12803596 550.89888985 2.44098377 552.06892776 C0.567802 552.90677932 -1.30425823 553.74714251 -3.17522717 554.58992386 C-6.98969212 556.30441423 -10.8095597 558.00583336 -14.63469982 559.69636917 C-21.70628267 562.8261113 -28.73175463 566.0541155 -35.75728893 569.28551102 C-39.31822828 570.92080144 -42.8842279 572.54498411 -46.44964123 574.17049026 C-55.5150704 578.30644358 -64.56865061 582.46806453 -73.62151623 586.63142776 C-86.28979365 592.45718048 -98.96728462 598.26232504 -111.65172863 604.05278397 C-124.19153844 609.77860402 -136.70848712 615.55315438 -149.22115612 621.33800125 C-161.95003016 627.22141211 -174.70188352 633.05198728 -187.47576427 638.83699417 C-193.95660386 641.77356627 -200.42820088 644.72771993 -206.87932873 647.72908401 C-207.49340084 648.01440994 -208.10747295 648.29973587 -208.74015331 648.59370804 C-211.62330856 649.93381213 -214.5044253 651.27800467 -217.38250256 652.62898636 C-218.37790051 653.09256546 -219.37329845 653.55614456 -220.39885998 654.03377151 C-221.70198132 654.64466629 -221.70198132 654.64466629 -223.03142834 655.26790237 C-225.12151623 656.13142776 -225.12151623 656.13142776 -227.12151623 656.13142776 C-225.13180817 648.62483045 -222.94687881 641.20357816 -220.59417248 633.80330276 C-220.25357296 632.72594864 -219.91297344 631.64859451 -219.56205273 630.53859329 C-218.43814972 626.98553327 -217.31110676 623.43347781 -216.18401623 619.88142776 C-215.38241527 617.34957993 -214.58098167 614.81767961 -213.77971935 612.28572464 C-211.23067523 604.23312113 -208.67655306 596.1821315 -206.12151623 588.13142776 C-205.9124741 587.47270676 -205.70343197 586.81398575 -205.48805523 586.1353035 C-201.73410382 574.30612131 -197.9787778 562.47737537 -194.22114944 550.64936066 C-188.50282525 532.64919001 -182.80382971 514.64300497 -177.12151623 496.63142776 C-170.80972472 476.62455547 -164.47368735 456.62550508 -158.12151623 436.63142776 C-151.74950471 416.57453924 -145.39219434 396.51312278 -139.05901623 376.44392776 C-132.94384659 357.06580647 -126.81977829 337.69053947 -120.68401623 318.31892776 C-120.28861645 317.07052109 -119.89321667 315.82211441 -119.48583508 314.53587723 C-115.93208957 303.31573528 -112.37765027 292.09581319 -108.8226881 280.87605667 C-106.52615445 273.62794512 -104.22994819 266.37972992 -101.93401623 259.13142776 C-101.54995617 257.91898392 -101.16589611 256.70654007 -100.77019787 255.4573555 C-95.937232 240.19869033 -91.11135463 224.93780518 -86.29339123 209.67439651 C-86.04440453 208.88560734 -85.79541782 208.09681816 -85.53888607 207.28412628 C-84.26704951 203.25488754 -82.99526996 199.22563082 -81.72350597 195.19636917 C-72.9669822 167.45370127 -64.19199182 139.71704352 -55.38128185 111.99153519 C-51.41236657 99.50142367 -47.44781273 87.00998437 -43.49691105 74.51416397 C-42.83681434 72.42646911 -42.17657992 70.33881784 -41.51630688 68.25117874 C-38.99301401 60.27315344 -38.99301401 60.27315344 -36.47243786 52.29426956 C-34.32894065 45.5055722 -32.17847174 38.71920838 -30.01375866 31.93724442 C-29.20603185 29.39720234 -28.40906629 26.85405505 -27.61443615 24.30989456 C-27.18512445 22.96244754 -26.7552538 21.61517838 -26.32464123 20.26814651 C-25.98207287 19.17977493 -25.63950451 18.09140335 -25.28655529 16.97005081 C-22.34285314 9.79770695 -16.97410201 4.90861481 -9.98089123 1.78767776 C-6.61113818 0.59835316 -3.57675411 0.00632903 0 0 Z " fill="#0A0102" transform="translate(429.12151622772217,17.868572235107422)"/>
<path d="M0 0 C1.4393637 0.67648569 2.87965594 1.35099873 4.32080078 2.02368164 C7.35746805 3.44359784 10.38946555 4.87286778 13.41845703 6.30908203 C20.29031497 9.56061942 27.20756773 12.71318314 34.12045288 15.87625122 C38.01486349 17.65996052 41.90560639 19.45163714 45.796875 21.2421875 C54.75457844 25.36174456 63.71972213 29.46492772 72.6875 33.5625 C73.40631348 33.89096924 74.12512695 34.21943848 74.86572266 34.55786133 C79.93107677 36.8724294 84.99674647 39.18630626 90.0625 41.5 C95.85439033 44.14534394 101.64613235 46.79101193 107.4375 49.4375 C108.15633362 49.76597931 108.87516724 50.09445862 109.61578369 50.43289185 C121.71632869 55.96316219 133.80715231 61.5144291 145.8949585 67.07247925 C157.83173915 72.56081053 169.77674004 78.03087259 181.72747803 83.48873901 C193.83809689 89.02000668 205.93675183 94.57698325 218.0322876 100.1411438 C229.48979652 105.410725 240.96404446 110.64213314 252.44976807 115.84988403 C264.67134703 121.39331034 276.85857549 127.00964236 289.03781128 132.64541626 C297.78164974 136.69123114 306.53042267 140.7244349 315.30859375 144.6953125 C316.04860626 145.03028748 316.78861877 145.36526245 317.55105591 145.71038818 C321.00074728 147.27114377 324.45203252 148.82819428 327.90625 150.37890625 C330.99603322 151.76932617 334.07453254 153.1824047 337.1461792 154.61242676 C338.47943376 155.22994397 339.81583233 155.84069953 341.15460205 156.44616699 C358.95080569 164.52980475 358.95080569 164.52980475 363.33203125 174.34375 C364.71214919 178.02406451 365.90097551 181.74701917 367.0625 185.5 C367.55146263 187.02563031 368.04227768 188.55066781 368.53466797 190.07519531 C369.69751279 193.69030785 370.84624377 197.30959443 371.98730469 200.93164062 C374.17476235 207.86929032 376.39447331 214.79650295 378.61548424 221.72345924 C382.57962222 234.08792285 386.53017338 246.45666356 390.47023964 258.82881737 C395.08116258 273.30711986 399.71897082 287.77633516 404.38476562 302.23706055 C406.92678495 310.11725174 409.45048257 318.00328379 411.9727478 325.88981628 C414.03614083 332.3314357 416.12917681 338.76253348 418.24443054 345.18730164 C419.59364692 349.2996372 420.92285342 353.41826277 422.24777222 357.53848267 C422.86024161 359.4279228 423.48119847 361.31463922 424.11184692 363.1980896 C428.13015251 375.21223795 432.91609057 389.98015175 427.375 402.3125 C424.27219845 406.58933457 420.96560853 409.52199383 416.0625 411.5 C412.77734375 411.8359375 412.77734375 411.8359375 409 411.875 C407.77152344 411.90335938 406.54304687 411.93171875 405.27734375 411.9609375 C394.54270585 411.26975038 384.05322658 404.85274793 374.45532227 400.36474609 C370.10725002 398.33173879 365.75223186 396.31368451 361.3984375 394.29296875 C360.51939758 393.88444672 359.64035767 393.47592468 358.73468018 393.05502319 C350.69850553 389.32281654 342.63462442 385.65363159 334.5625 382 C321.70186638 376.17405625 308.87802685 370.27078 296.06347656 364.34423828 C284.91459237 359.18902567 273.7504729 354.06980617 262.5625 349 C249.70254573 343.17253903 236.87804105 337.27078657 224.06347656 331.34423828 C212.91459237 326.18902567 201.7504729 321.06980617 190.5625 316 C178.53853176 310.55136432 166.5440807 305.04120667 154.5625 299.5 C142.53861164 293.93949168 130.50263598 288.40796271 118.4375 282.9375 C106.839023 277.67849441 95.25710942 272.38472512 83.6875 267.0625 C70.93928114 261.19819984 58.1844271 255.34884144 45.41921997 249.52160645 C36.96146241 245.66061608 28.50932341 241.78788036 20.06640625 237.89453125 C18.38932886 237.12173188 16.71224558 236.34894533 15.03515625 235.57617188 C11.85306091 234.10980169 8.67226698 232.64065765 5.4921875 231.16992188 C-14.66699912 220.61545637 -14.66699912 220.61545637 -36.47973633 221.796875 C-37.72707418 222.35372095 -38.96932881 222.92205381 -40.20703125 223.5 C-41.2360128 223.96542206 -41.2360128 223.96542206 -42.28578186 224.44024658 C-44.50816526 225.44930988 -46.72300498 226.47375451 -48.9375 227.5 C-50.4289878 228.1837296 -51.9206887 228.86699454 -53.41259766 229.54980469 C-58.24125202 231.76637672 -63.05824948 234.00770866 -67.875 236.25 C-69.66096535 237.07977514 -71.44701874 237.90936083 -73.2331543 238.73876953 C-76.93994954 240.46022053 -80.64636888 242.18247716 -84.35253906 243.90527344 C-92.44613906 247.66663061 -100.54496727 251.41670045 -108.6434021 255.16763306 C-120.78637859 260.79221689 -132.92660369 266.42265587 -145.0625 272.0625 C-155.9081584 277.10183187 -166.76536492 282.1158792 -177.625 287.125 C-195.47292735 295.35755669 -213.30853908 303.61648179 -231.13995361 311.88473511 C-237.31026849 314.74581169 -243.48115242 317.60565815 -249.65234375 320.46484375 C-264.45846773 327.32485143 -279.26429735 334.1854178 -294.0625 341.0625 C-305.73252456 346.48486575 -317.41622156 351.87736115 -329.10128784 357.26721191 C-342.11481761 363.27019071 -355.12225678 369.28619346 -368.125 375.3125 C-369.4224263 375.91366638 -369.4224263 375.91366638 -370.74606323 376.52697754 C-379.07526317 380.3864333 -387.40350691 384.24782561 -395.72265625 388.12890625 C-407.1135357 393.44037936 -418.52296804 398.70757578 -429.98254395 403.86920166 C-431.27166013 404.45000827 -432.56032681 405.03181372 -433.84851074 405.61468506 C-435.62660169 406.41848521 -437.40700245 407.21716988 -439.1875 408.015625 C-440.20328125 408.47227539 -441.2190625 408.92892578 -442.265625 409.39941406 C-449.62682968 412.43160619 -458.86448666 412.89110947 -466.55859375 410.78125 C-471.31759242 408.55018824 -474.72525484 405.65978657 -476.65234375 400.63671875 C-479.61356455 390.04987052 -476.96383272 379.09558338 -473.60546875 368.94140625 C-473.26203934 367.8641478 -472.91860992 366.78688934 -472.56477356 365.67698669 C-471.43167434 362.13432932 -470.27843599 358.59858287 -469.125 355.0625 C-468.31317804 352.53750824 -467.50252627 350.01216907 -466.69335938 347.48632812 C-464.77335445 341.5016943 -462.83882023 335.5218685 -460.89814568 329.54390907 C-458.56436555 322.35399903 -456.24483486 315.15951439 -453.92578125 307.96484375 C-453.09485439 305.38749132 -452.26378625 302.81018449 -451.43261719 300.23291016 C-451.22703375 299.59541084 -451.02145031 298.95791153 -450.80963707 298.30109406 C-449.55910982 294.42424718 -448.30644856 290.54809677 -447.052145 286.67247009 C-441.4681098 269.41845782 -435.96442392 252.14114021 -430.52481079 234.84103394 C-428.32209616 227.84188876 -426.10863963 220.8461358 -423.89381409 213.85081482 C-422.32363962 208.89051172 -420.75705338 203.92922656 -419.20605469 198.96289062 C-417.96126181 194.97902299 -416.69855485 191.00138749 -415.41848755 187.02871704 C-414.98335861 185.66751137 -414.55499373 184.3041188 -414.13449097 182.93832397 C-411.2084582 173.44964157 -408.4044252 166.69184943 -399.61230469 161.55859375 C-396.20186184 159.76878973 -392.72476123 158.13947983 -389.22088623 156.54180908 C-386.91573109 155.4900678 -384.6232914 154.41421968 -382.33251953 153.33154297 C-377.40055051 151.00689871 -372.45134793 148.72050908 -367.5 146.4375 C-365.68648357 145.59920734 -363.87300769 144.76082695 -362.05957031 143.92236328 C-349.79186738 138.25526445 -337.50041106 132.64148414 -325.19165039 127.06420898 C-314.92413681 122.41098429 -304.67774273 117.71290827 -294.4375 113 C-282.78404851 107.63726154 -271.11983515 102.2995253 -259.4375 97 C-247.01459739 91.36410983 -234.61195786 85.68525062 -222.21875 79.984375 C-210.244645 74.4762867 -198.26221389 68.98680958 -186.27307129 63.51153564 C-175.7270671 58.69485961 -165.18919816 53.86078115 -154.65625 49.015625 C-141.59198402 43.00606265 -128.51567992 37.02443357 -115.41949463 31.08474731 C-105.11587697 26.41100393 -94.83112419 21.69748703 -84.55453491 16.96463013 C-77.68548864 13.80256449 -70.81202442 10.65013416 -63.9375 7.5 C-63.21858582 7.17030212 -62.49967163 6.84060425 -61.75897217 6.50091553 C-57.67584451 4.6291772 -53.58946791 2.7649062 -49.49768066 0.91217041 C-47.68620479 0.09026977 -45.87771371 -0.73819958 -44.06933594 -1.56689453 C-27.37212523 -9.09715416 -16.56204398 -7.9867612 0 0 Z " fill="#EF4322" transform="translate(567.9375,649.5)"/>
</svg>
